<?xml version="1.0" encoding="UTF-8" standalone="no"?><!DOCTYPE svg PUBLIC "-//W3C//DTD SVG 1.1//EN" "http://www.w3.org/Graphics/SVG/1.1/DTD/svg11.dtd"><svg width="100%" height="100%" viewBox="0 0 3205 500" version="1.1" xmlns="http://www.w3.org/2000/svg" xmlns:xlink="http://www.w3.org/1999/xlink" xml:space="preserve" xmlns:serif="http://www.serif.com/" style="fill-rule:evenodd;clip-rule:evenodd;stroke-linejoin:round;stroke-miterlimit:2;"><g><rect x="0" y="0" width="3204.31" height="500" style="fill:none;"/><g><path d="M150.092,462.5c-17.86,0 -34.38,-3.935 -49.561,-11.806c-15.181,-7.87 -27.237,-18.495 -36.167,-31.875c-8.93,-13.379 -13.395,-27.939 -13.395,-43.68l0,-39.549l103.812,0l-0,34.827l273.258,-0l0,-74.375l-277.947,-0c-17.86,-0 -34.38,-3.936 -49.561,-11.806c-15.181,-7.87 -27.237,-18.397 -36.167,-31.58c-8.93,-13.183 -13.395,-27.841 -13.395,-43.975l0,-83.82c0,-16.134 4.465,-30.793 13.395,-43.976c8.93,-13.182 20.986,-23.709 36.167,-31.579c15.181,-7.871 31.701,-11.806 49.561,-11.806l283.975,-0c17.86,-0 34.269,3.935 49.227,11.806c14.958,7.87 27.013,18.397 36.166,31.579c9.154,13.183 13.73,27.842 13.73,43.976l0,39.549l-105.151,-0l0,-34.827l-273.258,0l-0,74.375l279.286,0c17.86,0 34.269,3.936 49.227,11.806c14.958,7.87 27.013,18.397 36.166,31.58c9.154,13.183 13.73,27.841 13.73,43.975l0,83.82c0,15.741 -4.576,30.301 -13.73,43.68c-9.153,13.38 -21.208,24.005 -36.166,31.875c-14.958,7.871 -31.367,11.806 -49.227,11.806l-283.975,-0Z" style="fill:#fff;fill-rule:nonzero;"/><path d="M3098.78,52.382l-397.844,-0c-30.137,-0 -54.568,24.431 -54.568,54.568l0,355.55l106.028,0l0,-310.975l294.924,0l-0,310.975l106.028,0l-0,-355.55c-0,-30.137 -24.431,-54.568 -54.568,-54.568Z" style="fill:#fff;fill-rule:nonzero;"/><path d="M2390.11,151.525l-294.928,0l-0,211.719l294.928,-0l0,-211.719Zm106.028,-44.575l0,300.982c0,30.137 -24.43,54.568 -54.562,54.568l-397.849,-0c-30.137,-0 -54.568,-24.431 -54.568,-54.568l0,-300.982c0,-30.137 24.431,-54.568 54.568,-54.568l397.849,-0c30.132,-0 54.562,24.431 54.562,54.568Z" style="fill:#fff;fill-rule:nonzero;"/><path d="M1087.33,250.46l-0,-98.935l-294.923,0l-0,98.935l294.923,-0Zm106.028,-143.51l0,355.55l-106.028,0l-0,-122.996l-294.923,0l-0,122.996l-106.028,0l-0,-355.55c-0,-30.137 24.431,-54.568 54.568,-54.568l397.849,-0c30.131,-0 54.562,24.431 54.562,54.568Z" style="fill:#fff;fill-rule:nonzero;"/><path d="M1759.04,52.382c-2.77,-0 -5.422,1.061 -7.329,2.936l-156.187,135.099l-159.829,-135.099c-1.913,-1.875 -4.56,-2.936 -7.33,-2.936l-97.252,-0l0,27.742c0,9.724 4.002,19.073 11.176,26.118l169.672,155.474l-174.831,163.945c-3.863,3.793 -6.017,8.824 -6.017,14.058l0,22.781l109.43,0c2.77,0 5.422,-1.061 7.33,-2.936l147.651,-126.543l144.009,126.543c1.907,1.875 4.559,2.936 7.329,2.936l109.43,0l0,-22.781c0,-5.234 -2.153,-10.265 -6.016,-14.058l-174.831,-163.945l169.671,-155.474c7.174,-7.045 11.176,-16.394 11.176,-26.118l0,-27.742l-97.252,-0Z" style="fill:#fff;fill-rule:nonzero;"/></g></g></svg>